<svg width="32" height="32" viewBox="0 0 32 32" fill="none" xmlns="http://www.w3.org/2000/svg">
<path d="M16.7503 6.88906L16 8.08163L15.2497 6.88906C15.1093 6.6659 14.9262 6.47271 14.7108 6.32058L13.819 5.69058C13.6688 5.58444 13.5046 5.49954 13.3312 5.43827L12.4096 5.11275C12.2361 5.05148 12.0719 4.96658 11.9217 4.86044L11.2145 4.36085C10.8822 4.12606 10.4852 4 10.0783 4C9.85489 4 9.63311 4.03802 9.42245 4.11243L8.55772 4.41787C8.38427 4.47913 8.2201 4.56403 8.06985 4.67017L5.7336 6.32058C5.51827 6.47271 5.33513 6.6659 5.19473 6.88906L4.44444 8.08163L3.27688 10.5561C3.09691 10.9375 3.04212 11.366 3.12034 11.7804L3.44678 13.51C3.46986 13.6323 3.48148 13.7565 3.48148 13.881V15.1579C3.48148 15.5347 3.58796 15.9039 3.78864 16.2229L4.44444 17.2653L4.79013 17.9979C4.8801 18.1886 4.99964 18.3638 5.14433 18.5171L5.57351 18.9719C5.78106 19.1919 5.93603 19.456 6.02678 19.7445L6.37037 20.8367L6.56775 21.255C6.75217 21.6459 7.05825 21.9665 7.44015 22.1688L7.52315 22.2128C7.71629 22.3151 7.89135 22.4484 8.04136 22.6074L8.55123 23.1477C8.70125 23.3067 8.87631 23.44 9.06945 23.5423L9.26871 23.6479C9.57798 23.8117 9.83883 24.0539 10.0252 24.3501L10.491 25.0905C10.6314 25.3137 10.8146 25.5069 11.0299 25.659L11.6478 26.0955C11.9734 26.3255 12.3622 26.449 12.7607 26.449C13.2917 26.449 13.7991 26.6678 14.1635 27.054L16 29L17.8365 27.054C18.2009 26.6678 18.7083 26.449 19.2393 26.449C19.6378 26.449 20.0266 26.3255 20.3522 26.0955L20.9701 25.659C21.1854 25.5069 21.3686 25.3137 21.509 25.0905L21.9748 24.3501C22.1612 24.0539 22.422 23.8117 22.7313 23.6479L22.9306 23.5423C23.1237 23.44 23.2988 23.3067 23.4488 23.1477L23.9586 22.6074C24.1087 22.4484 24.2837 22.3151 24.4769 22.2128L24.5598 22.1688C24.9417 21.9665 25.2478 21.6459 25.4323 21.255L25.6296 20.8367L25.9732 19.7445C26.064 19.456 26.2189 19.1919 26.4265 18.9719L26.8557 18.5171C27.0004 18.3638 27.1199 18.1886 27.2099 17.9979L27.5556 17.2653L28.2114 16.2229C28.412 15.9039 28.5185 15.5347 28.5185 15.1579V13.881C28.5185 13.7565 28.5301 13.6323 28.5532 13.51L28.8797 11.7804C28.9579 11.366 28.9031 10.9375 28.7231 10.5561L27.5556 8.08163L26.8053 6.88906C26.6649 6.6659 26.4817 6.47271 26.2664 6.32058L23.9301 4.67017C23.7799 4.56403 23.6157 4.47913 23.4423 4.41787L22.5775 4.11243C22.3669 4.03802 22.1451 4 21.9217 4C21.5148 4 21.1179 4.12606 20.7855 4.36085L20.0783 4.86044C19.9281 4.96658 19.7639 5.05148 19.5904 5.11275L18.6688 5.43827C18.4954 5.49954 18.3312 5.58444 18.181 5.69058L17.2892 6.32058C17.0738 6.47271 16.8907 6.6659 16.7503 6.88906Z" stroke="#818181"/>
</svg>
